PathFileType  4	(X/Y/Z) C:\Users\antoi\Documents\MyRepositories\mobilecap\ResultsAnalysis
DataRate	CameraRate	NumFrames	NumMarkers	Units	OrigDataRate	OrigDataStartFrame	OrigNumFrames
100.0	100.0	4	51	mm	100.0	193	256
Frame#	Time	r_knee			r_shank_antsup			r_ankle			r_calc			r_5meta			r_toe			L_knee			L_shank_antsup			L_ankle			L_calc			L_5meta			L_toe			r_sh2			r_sh3			r_sh4			L_sh2			L_sh3			r_thigh1			r_thigh2			r_thigh3			r_thigh4			r_thigh5			L_thigh1			L_thigh2			L_thigh3			L_thigh4			r.ASIS			r.PSIS			L.ASIS			L.PSIS			C7			R_Shoulder			L_Shoulder			R_Sternum			L_Sternum			R_humerus			R_elbow_med			R_elbow_lat			R_forearm			R_wrist_radius			R_wrist_ulna			L_humerus			L_elbow_med			L_elbow_lat			L_forearm			L_wrist_radius			L_wrist_ulna			R_HJC			L_HJC			R_HJC_reg			L_HJC_reg			
		X1	Y1	Z1	X2	Y2	Z2	X3	Y3	Z3	X4	Y4	Z4	X5	Y5	Z5	X6	Y6	Z6	X7	Y7	Z7	X8	Y8	Z8	X9	Y9	Z9	X10	Y10	Z10	X11	Y11	Z11	X12	Y12	Z12	X13	Y13	Z13	X14	Y14	Z14	X15	Y15	Z15	X16	Y16	Z16	X17	Y17	Z17	X18	Y18	Z18	X19	Y19	Z19	X20	Y20	Z20	X21	Y21	Z21	X22	Y22	Z22	X23	Y23	Z23	X24	Y24	Z24	X25	Y25	Z25	X26	Y26	Z26	X27	Y27	Z27	X28	Y28	Z28	X29	Y29	Z29	X30	Y30	Z30	X31	Y31	Z31	X32	Y32	Z32	X33	Y33	Z33	X34	Y34	Z34	X35	Y35	Z35	X36	Y36	Z36	X37	Y37	Z37	X38	Y38	Z38	X39	Y39	Z39	X40	Y40	Z40	X41	Y41	Z41	X42	Y42	Z42	X43	Y43	Z43	X44	Y44	Z44	X45	Y45	Z45	X46	Y46	Z46	X47	Y47	Z47	X48	Y48	Z48	X49	Y49	Z49	X50	Y50	Z50	X51	Y51	Z51	

193	1.92000000	-99.24434	814.31906	-334.28072	-162.56530	676.91669	-285.28567	-184.42239	318.42252	-262.23102	-221.15791	339.33363	-337.04899	-130.33384	168.51283	-244.54296	-68.99829	171.30012	-273.91088	-92.12297	807.64301	-802.50260	-54.56822	614.14888	-829.01532	-146.13195	320.22224	-860.46648	-174.79055	329.67348	-780.94774	-104.36034	155.92079	-903.36762	-30.61575	160.23257	-877.08699	-175.94305	567.61095	-261.84640	-90.95323	669.80172	-306.58585	-100.46248	557.08741	-290.73110	-133.87028	631.49609	-863.85017	-144.35404	511.07949	-862.38085	-10.41830	1098.14306	-349.14854	-11.36656	988.35277	-335.67947	-76.83131	967.10564	-330.41927	-116.55882	1097.21282	-388.66855	-122.54653	982.07317	-359.17230	-81.96717	1111.85786	-781.16105	-102.17647	975.73092	-799.84900	26.01685	1090.12341	-774.43628	3.55251	958.19960	-787.25154	82.14804	1366.83354	-439.26271	-96.36051	1406.65883	-521.91501	80.30114	1365.13412	-704.56860	-93.50915	1408.70262	-614.74582	3.08613	1883.20582	-553.12708	101.48141	1860.57492	-410.33370	52.95895	1881.58617	-706.73305	148.11428	1799.04867	-542.16412	141.38587	1801.76916	-601.23491	22.64666	1696.52451	-224.06213	-103.77610	1590.53193	-198.40400	-73.85327	1655.81300	-140.07132	104.28179	1653.95735	-244.11365	173.34338	1654.61396	-300.31942	183.60954	1635.64019	-269.36984	20.28197	1750.19673	-940.57544	-98.52095	1675.86579	-987.30525	-47.65707	1734.58106	-1027.46493	114.38511	1697.81866	-916.11924	157.74953	1683.56352	-862.55271	173.63195	1678.27724	-892.43734	2.98612	1275.13912	-472.11785	-3.94468	1278.68984	-669.43958	7.53052	1286.36389	-481.00557	12.90833	1290.21258	-655.99302	
194	1.93000000	-92.82833	833.73317	-332.83110	-162.52540	696.53951	-288.74110	-189.79383	338.11929	-271.73020	-216.62925	361.34036	-350.37443	-139.75875	187.78961	-250.01665	-74.38195	190.63227	-270.74472	-84.36770	827.51226	-802.04746	-50.19891	633.22563	-829.84764	-147.33117	341.72099	-857.69962	-173.56957	351.79082	-777.34567	-111.54424	177.18856	-902.69726	-37.17883	178.67973	-878.16998	-179.09255	586.52781	-269.08802	-89.39940	689.17225	-303.54694	-100.75802	576.74048	-289.52774	-130.82859	651.79051	-860.47753	-142.99372	531.38052	-858.66008	-2.12823	1120.31663	-347.25875	-1.76189	1009.38590	-333.86444	-66.70497	987.46008	-327.73537	-108.40272	1116.63931	-386.56148	-112.95727	1001.72458	-356.19129	-76.13476	1132.00721	-779.48705	-93.64255	995.77763	-799.88329	32.27543	1112.25301	-773.91709	12.46315	979.93604	-787.51566	85.48119	1387.63404	-436.71926	-93.38013	1426.96083	-521.39617	83.55521	1383.12841	-702.86859	-90.69167	1429.70970	-614.59401	2.61879	1902.36448	-554.22169	98.32707	1878.80923	-409.27599	53.12088	1899.05027	-709.78427	148.70816	1819.60432	-541.70812	142.70589	1822.07194	-599.42284	26.39599	1705.57468	-224.62298	-94.40212	1595.92642	-199.98288	-65.92621	1660.60161	-140.73783	111.95276	1663.43505	-245.96235	180.72079	1666.48585	-301.93564	191.86058	1647.57019	-271.20748	24.12928	1755.98972	-940.11358	-91.15537	1677.71069	-983.76429	-40.83742	1735.96771	-1026.36484	121.94003	1703.94848	-913.86251	165.38374	1691.31804	-860.07459	181.31763	1686.53041	-890.09879	5.07772	1296.04242	-469.79782	-1.19274	1297.75356	-667.16645	11.30518	1304.37662	-479.07359	16.36746	1309.55544	-654.61041	
195	1.94000000	-83.83610	851.61912	-331.39848	-157.81428	714.58772	-291.87898	-192.46168	357.66125	-280.04857	-214.85077	382.31501	-359.45572	-147.24765	206.39971	-256.12330	-80.60839	207.93199	-273.49939	-74.61073	846.32661	-802.48684	-43.20181	650.56962	-830.46588	-147.43994	362.64228	-855.33933	-173.17478	374.80126	-774.95425	-120.17798	196.97390	-899.66496	-46.13575	193.91690	-874.22178	-178.33402	604.89528	-275.32653	-84.53162	706.57875	-301.86689	-98.64704	594.65245	-289.96863	-124.30136	670.78455	-858.62533	-138.86800	550.70879	-856.90493	3.58883	1142.45860	-343.83599	5.90421	1030.14848	-329.34455	-58.84400	1007.15746	-324.48704	-102.38741	1135.31691	-383.97489	-105.06984	1020.30786	-353.32341	-70.74009	1151.32044	-778.71364	-86.40547	1015.01578	-800.07090	38.07040	1133.66866	-776.64550	20.35906	1000.76417	-789.85286	86.39314	1408.21077	-433.90727	-92.78705	1446.09756	-521.29396	84.59252	1401.23599	-701.18528	-90.12380	1449.38380	-614.51334	4.50896	1922.05379	-555.18752	96.31905	1896.29228	-408.06814	55.03659	1915.72744	-712.49020	149.82015	1839.42137	-541.67465	144.93442	1841.57708	-597.25215	31.26101	1713.29015	-226.65309	-84.04699	1600.57735	-203.06361	-57.15822	1664.40875	-142.59832	121.15189	1671.39120	-248.42582	189.90058	1676.27509	-303.92367	201.61657	1657.66888	-273.20362	28.93278	1760.07864	-938.14539	-83.16359	1678.83936	-978.46982	-33.32090	1735.95759	-1023.63009	130.88364	1708.27517	-910.52416	174.41075	1697.21714	-856.80453	190.12917	1692.63778	-887.33986	5.40630	1316.27606	-467.63589	0.05622	1316.28509	-665.03971	13.01082	1322.07463	-476.89909	18.04769	1328.29057	-653.18540	
196	1.95000000	-71.98503	867.69845	-330.84557	-148.49079	731.39400	-293.92639	-192.59304	376.98910	-286.07682	-216.25967	401.69705	-364.46469	-150.87473	225.01509	-261.34825	-85.15191	224.10704	-281.38595	-61.94454	863.61971	-803.79438	-34.49538	665.88567	-830.09317	-148.38954	381.99203	-852.63978	-176.02098	396.20751	-773.25583	-125.87855	215.48324	-895.21713	-53.12707	209.40532	-866.55432	-172.72000	622.43229	-279.67723	-75.54339	721.98557	-301.98722	-93.04034	610.56934	-292.29144	-114.78652	688.13996	-858.73544	-133.24596	568.96427	-856.04715	6.69977	1162.80585	-339.78971	11.48087	1050.39563	-323.54100	-52.96189	1025.55794	-321.10688	-98.74556	1152.51000	-381.20187	-98.50615	1037.25506	-351.42994	-66.96882	1169.07281	-777.79365	-80.49923	1032.70214	-800.01059	42.06027	1154.04259	-780.18295	26.97286	1020.51744	-793.28117	85.55875	1427.95028	-430.82626	-93.68712	1464.37031	-520.93530	84.30077	1419.38216	-699.68964	-90.97791	1467.63207	-614.09672	8.15169	1941.46144	-556.18279	96.01928	1912.97697	-406.90030	58.07687	1931.69732	-715.18213	151.46186	1858.26393	-541.28461	147.36323	1859.98094	-595.34100	37.52681	1720.92946	-230.27144	-73.22943	1605.21825	-207.66193	-47.87163	1668.43044	-145.74395	131.59522	1678.58648	-251.26091	200.55487	1684.54457	-306.19971	212.58572	1666.40286	-275.39012	34.86923	1763.45670	-934.84746	-74.77433	1680.07285	-971.63794	-25.23718	1735.46295	-1019.26400	140.65461	1711.25711	-906.63507	184.55224	1701.64493	-853.07563	199.91980	1696.79285	-883.84346	4.61152	1335.51137	-465.60127	0.26141	1334.32244	-663.02629	12.92279	1339.96798	-474.11001	18.08001	1346.17713	-651.46924	
